<?xml version="1.0" standalone="no"?>
<!DOCTYPE svg PUBLIC "-//W3C//DTD SVG 20010904//EN"
 "http://www.w3.org/TR/2001/REC-SVG-20010904/DTD/svg10.dtd">
<svg version="1.0" xmlns="http://www.w3.org/2000/svg"
 width="800.000000pt" height="800.000000pt" viewBox="0 0 800.000000 800.000000"
 preserveAspectRatio="xMidYMid meet">
<metadata>
Created by potrace 1.11, written by Peter Selinger 2001-2013
</metadata>
<g transform="translate(0.000000,800.000000) scale(0.100000,-0.100000)"
fill="#000000" stroke="none">
<path d="M3175 7159 c-49 -24 -89 -67 -114 -122 -11 -23 -112 -260 -226 -527
-211 -493 -239 -559 -255 -595 -5 -11 -100 -234 -211 -495 -110 -261 -212
-499 -225 -528 -13 -29 -24 -55 -24 -58 0 -3 -10 -26 -21 -52 -12 -26 -30 -66
-40 -89 -11 -24 -24 -54 -29 -68 -8 -22 -185 -436 -735 -1725 -212 -496 -225
-527 -225 -537 0 -6 1244 -10 1331 -4 10 1 28 29 49 78 18 43 50 116 70 163
21 47 54 126 75 175 20 50 45 108 55 130 10 22 50 117 90 210 40 94 80 188 90
210 10 22 64 148 120 280 56 132 110 258 120 280 10 22 88 207 175 410 86 204
163 384 171 400 7 17 63 147 124 290 61 143 118 276 127 295 272 633 260 602
246 640 -8 19 -20 49 -28 65 -21 47 -353 830 -392 925 -79 191 -103 228 -166
255 -49 20 -104 18 -152 -6z"/>
<path d="M3517 7128 c16 -29 47 -93 68 -143 20 -49 43 -103 51 -120 7 -16 45
-106 84 -200 40 -93 78 -183 85 -200 29 -67 218 -511 289 -681 42 -100 76
-187 76 -193 0 -6 5 -11 10 -11 6 0 10 -6 10 -12 0 -12 36 -97 243 -583 33
-77 90 -212 127 -300 37 -88 137 -324 223 -525 85 -201 185 -437 222 -525 37
-88 76 -178 86 -200 9 -22 49 -114 87 -205 226 -534 296 -699 311 -735 10 -22
26 -61 37 -87 10 -27 24 -48 29 -49 6 -1 311 -2 678 -3 l668 -1 -5 21 c-3 12
-52 131 -110 265 -57 134 -154 363 -216 509 -145 341 -134 318 -159 372 -11
26 -21 50 -21 53 0 2 -11 28 -24 57 -14 29 -145 337 -291 683 -147 347 -273
644 -280 660 -7 17 -43 102 -80 190 -37 88 -76 178 -86 200 -10 22 -61 144
-114 270 -53 127 -103 244 -111 260 -7 17 -77 181 -154 365 -78 184 -147 349
-155 365 -7 17 -48 111 -90 210 -42 99 -87 194 -101 213 -14 18 -49 48 -77 67
-100 65 -95 64 -749 65 l-590 0 29 -52z"/>
<path d="M3977 5693 c-8 -15 -40 -89 -72 -163 -32 -74 -66 -153 -76 -175 -10
-22 -84 -193 -165 -380 -155 -360 -396 -918 -420 -973 -8 -17 -21 -48 -29 -67
-90 -202 -83 -288 50 -600 52 -124 70 -166 220 -525 59 -140 111 -261 115
-269 5 -9 8 6 7 35 -1 94 20 168 96 334 14 30 51 116 82 190 32 74 65 153 75
175 16 35 36 82 96 220 7 17 92 215 189 440 97 226 182 424 190 441 8 16 37
83 64 147 l50 117 -95 228 c-53 125 -102 241 -109 257 -8 17 -66 156 -131 310
-64 154 -118 282 -120 283 -1 2 -9 -9 -17 -25z"/>
<path d="M4497 4459 c-95 -221 -150 -348 -162 -373 -37 -83 -235 -550 -235
-555 0 -3 185 -6 410 -6 226 0 410 4 410 8 0 4 -9 27 -19 50 -10 23 -53 123
-94 222 -109 262 -288 679 -292 683 -2 2 -10 -11 -18 -29z"/>
<path d="M4004 3315 c-21 -49 -48 -112 -60 -140 -88 -199 -184 -428 -196 -472
-23 -76 -17 -189 11 -239 25 -44 71 -80 122 -94 21 -6 329 -10 786 -10 l753 0
-10 26 c-6 14 -20 49 -33 77 -13 29 -108 252 -211 497 l-189 445 -467 0 -468
0 -38 -90z"/>
<path d="M1139 2053 c-11 -24 -23 -53 -28 -65 -8 -20 -342 -796 -376 -873 -42
-94 -125 -292 -125 -296 0 -4 61 -6 136 -5 l136 1 66 157 67 158 280 0 281 0
68 -158 68 -159 134 -1 c85 -1 134 2 134 8 0 8 -124 301 -175 415 -14 30 -139
322 -222 515 -24 58 -53 125 -64 150 -11 25 -35 79 -53 120 l-32 75 -138 0
-137 1 -20 -43z m191 -353 c12 -30 31 -75 42 -100 11 -25 24 -54 29 -65 4 -11
21 -50 38 -87 16 -37 27 -69 23 -72 -15 -8 -332 -3 -332 6 0 8 48 124 105 253
12 28 30 69 40 93 10 23 21 39 25 35 4 -4 17 -33 30 -63z"/>
<path d="M2115 1460 c0 -412 3 -637 9 -642 6 -4 234 -7 508 -7 456 1 498 2
502 17 2 9 3 64 2 122 l-1 105 -382 -1 -383 0 0 521 0 521 -127 0 -128 -1 0
-635z"/>
<path d="M3269 2085 c-1 -5 -2 -294 -3 -642 l-1 -631 128 0 127 0 -2 641 -3
642 -122 0 c-78 1 -123 -3 -124 -10z"/>
<path d="M3650 1975 l0 -120 238 0 c130 1 242 0 247 -2 7 -2 10 -180 9 -511
-1 -279 1 -513 4 -520 6 -17 239 -16 245 1 2 7 3 239 3 515 -1 439 1 505 14
511 8 4 120 7 248 6 l232 -1 0 121 0 120 -620 0 -620 0 0 -120z"/>
<path d="M5020 1454 l0 -642 515 -1 c395 0 515 3 516 12 4 50 3 220 -1 226 -3
3 -178 6 -390 6 l-385 0 -2 138 c-1 133 -1 137 20 141 12 3 118 4 235 3 135
-1 212 2 213 8 1 6 2 61 3 123 l1 112 -236 0 -236 0 0 134 c-1 92 3 136 11
138 6 2 181 4 389 3 l377 -1 1 58 c0 32 0 78 0 103 0 25 0 53 0 63 -1 16 -30
17 -516 17 l-515 0 0 -641z"/>
<path d="M6695 2084 c-265 -46 -455 -240 -504 -514 -14 -79 -5 -234 18 -313
54 -186 213 -355 386 -409 111 -35 269 -43 375 -19 86 20 212 85 274 142 54
49 140 167 148 200 3 15 -49 59 -158 135 l-30 21 -32 -59 c-81 -144 -205 -221
-358 -220 -185 1 -332 119 -374 301 -21 89 -8 217 29 293 36 74 41 80 105 136
100 87 280 108 410 48 67 -31 135 -95 166 -155 11 -23 24 -41 28 -41 8 0 26
13 149 102 l53 39 -52 70 c-142 196 -379 287 -633 243z"/>
</g>
</svg>
